<?xml version="1.0" standalone="no"?>
<!DOCTYPE svg PUBLIC "-//W3C//DTD SVG 20010904//EN"
 "http://www.w3.org/TR/2001/REC-SVG-20010904/DTD/svg10.dtd">
<svg version="1.0" xmlns="http://www.w3.org/2000/svg"
 width="1026.000000pt" height="1024.000000pt" viewBox="0 0 1026.000000 1024.000000"
 preserveAspectRatio="xMidYMid meet">
<metadata>
Created by potrace 1.16, written by Peter Selinger 2001-2019
</metadata>
<g transform="translate(0.000000,1024.000000) scale(0.100000,-0.100000)"
fill="#000000" stroke="none">
<path d="M2 7868 c1 -1305 4 -2329 5 -2275 2 53 8 97 12 97 5 0 11 42 15 93
10 144 17 201 27 212 5 5 9 26 9 47 0 21 5 38 10 38 6 0 10 20 10 45 0 25 5
66 11 92 18 80 31 127 39 148 4 11 13 47 20 80 6 33 18 70 26 82 8 12 14 31
14 42 0 11 5 23 10 26 6 3 10 24 10 46 0 21 5 39 10 39 6 0 10 14 10 30 0 17
5 30 10 30 6 0 10 11 10 24 0 14 4 28 10 31 5 3 10 19 10 35 0 16 4 32 10 35
5 3 10 17 10 31 0 13 5 24 10 24 6 0 10 9 10 20 0 11 5 20 10 20 6 0 10 13 10
29 0 17 4 33 10 36 5 3 10 15 10 26 0 10 5 19 10 19 6 0 10 9 10 20 0 11 5 20
10 20 6 0 10 14 10 30 0 17 5 30 10 30 6 0 10 9 10 20 0 11 5 20 10 20 6 0 10
9 10 20 0 11 5 20 10 20 6 0 10 13 10 29 0 16 3 31 7 33 10 4 53 86 53 100 0
6 16 33 35 59 19 27 35 57 35 67 0 10 9 24 20 32 11 8 20 22 20 32 0 10 5 18
10 18 6 0 10 9 10 20 0 11 5 20 10 20 6 0 10 9 10 20 0 11 4 20 8 20 5 0 14
16 22 35 8 19 17 35 21 35 4 0 9 8 12 18 8 26 40 75 60 93 9 9 17 24 17 33 0
9 5 16 10 16 6 0 10 6 10 13 0 6 11 25 25 41 14 16 25 33 25 37 0 4 11 19 25
33 14 14 25 29 25 33 0 5 11 20 25 35 14 15 25 31 25 36 0 5 18 29 40 52 22
23 40 47 40 52 0 6 14 23 30 38 17 15 30 33 30 40 0 6 27 38 60 70 33 32 60
63 60 69 0 5 14 21 30 34 17 14 30 29 30 33 0 4 24 31 53 58 30 28 62 63 72
79 9 15 22 27 29 27 6 0 17 14 24 30 8 18 21 30 33 30 10 0 19 6 19 14 0 7 11
21 26 30 14 10 63 55 109 102 47 46 89 84 95 84 6 0 38 27 70 60 32 33 64 60
70 60 7 0 25 14 40 30 15 17 33 30 40 30 7 0 25 14 40 30 15 17 33 30 39 30 6
0 11 5 11 10 0 6 5 10 10 10 6 0 23 11 38 25 15 14 32 25 39 25 7 0 13 3 13 8
0 7 83 67 121 87 11 5 19 13 19 17 0 5 7 8 16 8 9 0 24 8 33 18 18 19 67 51
94 59 9 3 17 9 17 14 0 5 7 9 15 9 8 0 15 5 15 10 0 6 13 10 28 10 16 0 34 8
42 20 8 11 22 20 32 20 10 0 18 5 18 10 0 6 8 10 18 10 10 0 24 9 32 20 8 11
23 20 33 20 11 0 41 16 67 35 26 19 56 35 66 35 11 0 30 9 44 20 14 11 31 20
38 20 6 0 12 5 12 10 0 6 14 10 30 10 17 0 30 5 30 10 0 6 9 10 20 10 11 0 20
5 20 10 0 6 9 10 20 10 11 0 20 5 20 10 0 6 14 10 30 10 17 0 30 5 30 10 0 6
9 10 20 10 11 0 20 5 20 10 0 6 9 10 19 10 11 0 23 5 26 10 3 6 19 10 36 10
16 0 29 5 29 10 0 6 11 10 25 10 14 0 25 5 25 10 0 6 9 10 19 10 11 0 23 5 26
10 3 6 21 10 40 10 19 0 37 5 40 10 3 6 15 10 26 10 10 0 19 5 19 10 0 6 14
10 30 10 17 0 30 5 30 10 0 6 18 10 39 10 22 0 43 5 46 10 3 6 14 10 24 10 10
0 32 7 47 15 16 8 54 20 84 26 30 6 63 15 72 20 10 5 28 9 41 9 13 0 27 4 32
9 11 9 62 18 157 27 32 3 58 10 58 15 0 5 17 9 38 9 21 0 42 4 47 9 11 10 68
17 213 27 50 4 92 10 92 15 0 4 44 10 98 12 53 1 -971 4 -2275 5 l-2373 2 2
-2372z"/>
<path d="M5593 10233 c53 -2 97 -8 97 -12 0 -5 46 -11 103 -15 125 -7 186 -14
212 -26 20 -9 43 -13 145 -30 30 -5 75 -13 100 -19 25 -5 59 -13 75 -16 17 -4
39 -10 50 -15 11 -4 45 -13 75 -19 30 -6 68 -18 84 -26 15 -8 37 -15 47 -15
11 0 19 -4 19 -10 0 -5 20 -10 45 -10 25 0 45 -4 45 -10 0 -5 11 -10 24 -10
14 0 28 -4 31 -10 3 -5 17 -10 31 -10 13 0 24 -4 24 -10 0 -5 18 -10 40 -10
22 0 40 -4 40 -10 0 -5 9 -10 20 -10 11 0 20 -4 20 -10 0 -5 9 -10 19 -10 11
0 23 -4 26 -10 3 -5 16 -10 29 -10 25 0 76 -21 76 -32 0 -5 9 -8 20 -8 11 0
20 -4 20 -10 0 -5 14 -10 30 -10 17 0 30 -4 30 -10 0 -5 10 -10 23 -10 12 0
33 -9 47 -20 14 -11 34 -20 46 -20 11 0 41 -13 67 -30 26 -16 52 -30 58 -30 5
0 35 -16 65 -35 30 -19 61 -35 69 -35 8 0 15 -4 15 -10 0 -5 9 -10 20 -10 11
0 20 -4 20 -8 0 -5 21 -20 48 -33 26 -13 49 -27 50 -31 2 -5 12 -8 23 -8 10 0
19 -4 19 -8 0 -5 16 -14 35 -22 19 -8 35 -17 35 -22 0 -4 6 -8 13 -8 7 0 28
-12 47 -28 19 -15 49 -34 65 -42 17 -8 37 -23 46 -32 9 -10 20 -18 26 -18 5 0
24 -13 43 -30 19 -16 40 -29 46 -30 6 0 21 -11 34 -25 13 -14 29 -25 37 -25 7
0 13 -4 13 -10 0 -5 5 -10 10 -10 10 0 41 -24 109 -87 19 -18 39 -33 44 -33 4
0 19 -11 32 -24 14 -14 41 -37 62 -53 45 -33 126 -107 161 -145 14 -16 29 -28
33 -28 10 0 259 -247 259 -257 0 -3 22 -29 49 -57 98 -101 131 -138 131 -144
0 -4 17 -26 38 -48 51 -57 72 -83 72 -90 0 -3 13 -19 30 -37 16 -18 30 -38 30
-44 0 -7 5 -13 10 -13 6 0 10 -6 10 -14 0 -8 4 -16 8 -18 5 -1 26 -28 48 -58
21 -30 47 -64 56 -74 10 -11 18 -25 18 -32 0 -7 3 -14 8 -16 10 -4 52 -65 52
-76 0 -4 8 -17 18 -28 9 -10 24 -32 32 -49 8 -16 23 -39 33 -49 9 -11 17 -27
17 -35 0 -9 9 -27 20 -41 11 -14 20 -31 20 -37 0 -7 5 -13 10 -13 6 0 10 -9
10 -20 0 -11 5 -20 10 -20 6 0 10 -7 10 -15 0 -9 9 -25 20 -37 11 -12 20 -32
20 -44 0 -12 4 -24 9 -26 11 -4 61 -85 61 -99 0 -6 8 -23 19 -37 10 -15 24
-45 32 -67 8 -22 26 -64 41 -94 16 -29 28 -59 28 -66 0 -11 14 -44 51 -117 5
-10 9 -26 9 -37 0 -17 12 -46 51 -123 5 -10 9 -27 9 -38 0 -11 5 -29 10 -40 6
-11 15 -29 20 -40 6 -11 10 -29 10 -39 0 -11 5 -23 10 -26 6 -3 10 -24 10 -46
0 -21 5 -39 10 -39 6 0 10 -13 10 -29 0 -16 3 -31 8 -33 4 -1 22 -61 41 -133
32 -125 40 -160 61 -270 6 -27 15 -72 21 -100 6 -27 15 -88 20 -135 5 -47 13
-123 19 -170 6 -47 14 -121 19 -165 4 -44 8 997 9 2313 l2 2392 -2382 -2
c-1311 -1 -2339 -4 -2285 -5z"/>
<path d="M4885 9971 c-6 -5 -50 -12 -100 -15 -49 -2 -124 -10 -165 -16 -41 -6
-118 -14 -170 -16 -52 -3 -99 -10 -104 -15 -6 -5 -29 -9 -53 -9 -24 0 -43 -4
-43 -10 0 -5 -20 -10 -44 -10 -25 0 -48 -4 -51 -10 -3 -5 -33 -10 -66 -10 -33
0 -59 -4 -59 -10 0 -5 -13 -10 -29 -10 -17 0 -33 -4 -36 -10 -3 -5 -19 -10
-35 -10 -16 0 -32 -4 -35 -10 -3 -5 -24 -10 -45 -10 -21 0 -42 -4 -45 -10 -3
-5 -17 -10 -30 -10 -13 0 -27 -4 -30 -10 -3 -5 -17 -10 -30 -10 -13 0 -27 -4
-30 -10 -3 -5 -24 -10 -46 -10 -21 0 -39 -4 -39 -10 0 -5 -9 -10 -20 -10 -11
0 -20 -4 -20 -10 0 -5 -13 -10 -29 -10 -17 0 -33 -4 -36 -10 -3 -5 -17 -10
-31 -10 -13 0 -24 -4 -24 -10 0 -5 -11 -10 -25 -10 -14 0 -25 -4 -25 -9 0 -5
-16 -12 -35 -15 -36 -7 -118 -45 -123 -58 -2 -5 -16 -8 -32 -8 -16 0 -30 -3
-32 -7 -3 -7 -62 -38 -128 -66 -14 -6 -37 -19 -52 -29 -14 -10 -36 -18 -47
-18 -12 0 -21 -4 -21 -10 0 -5 -7 -10 -15 -10 -9 0 -25 -9 -37 -20 -12 -11
-32 -20 -45 -20 -13 0 -23 -4 -23 -10 0 -5 -7 -10 -15 -10 -8 0 -15 -4 -15
-10 0 -5 -7 -10 -15 -10 -8 0 -15 -4 -15 -10 0 -5 -9 -10 -20 -10 -11 0 -20
-4 -20 -10 0 -5 -9 -10 -20 -10 -11 0 -20 -4 -20 -10 0 -5 -7 -10 -15 -10 -8
0 -15 -4 -15 -10 0 -5 -12 -10 -26 -10 -17 0 -28 -6 -31 -19 -3 -10 -22 -27
-44 -36 -21 -10 -39 -22 -39 -27 0 -4 -5 -8 -11 -8 -12 0 -93 -54 -123 -82
-11 -10 -25 -18 -31 -18 -6 0 -17 -9 -25 -20 -8 -11 -20 -20 -27 -20 -7 0 -27
-13 -45 -30 -17 -16 -39 -30 -49 -30 -12 0 -19 -7 -19 -20 0 -12 -7 -20 -16
-20 -9 0 -29 -13 -44 -30 -15 -16 -33 -30 -39 -30 -6 0 -31 -19 -55 -42 -71
-69 -115 -108 -121 -108 -3 0 -84 -79 -180 -175 -96 -96 -179 -175 -185 -175
-5 0 -10 -7 -10 -15 0 -15 -13 -30 -108 -130 -23 -24 -42 -50 -42 -56 0 -6
-13 -23 -28 -37 -16 -15 -31 -35 -35 -44 -3 -10 -13 -18 -22 -18 -8 0 -15 -8
-15 -17 0 -10 -14 -34 -30 -53 -16 -19 -30 -40 -30 -45 0 -6 -9 -17 -20 -25
-11 -8 -20 -20 -20 -26 0 -6 -12 -24 -27 -40 -16 -16 -34 -42 -42 -57 -8 -15
-18 -27 -23 -27 -4 0 -8 -9 -8 -20 0 -11 -3 -20 -8 -20 -4 0 -16 -17 -27 -37
-11 -21 -28 -44 -37 -51 -10 -7 -18 -22 -18 -33 0 -10 -4 -19 -10 -19 -5 0
-10 -7 -10 -15 0 -8 -3 -15 -7 -15 -9 0 -33 -49 -33 -67 0 -7 -4 -13 -10 -13
-5 0 -10 -7 -10 -15 0 -8 -4 -15 -10 -15 -5 0 -10 -7 -10 -15 0 -8 -4 -15 -10
-15 -5 0 -10 -10 -10 -23 0 -13 -9 -33 -20 -45 -11 -12 -20 -28 -20 -37 0 -8
-4 -15 -10 -15 -5 0 -10 -9 -10 -21 0 -11 -8 -33 -18 -47 -10 -15 -23 -38 -28
-52 -34 -80 -60 -130 -66 -130 -5 0 -8 -13 -8 -30 0 -16 -3 -30 -8 -30 -8 0
-36 -60 -54 -120 -7 -22 -16 -40 -20 -40 -5 0 -8 -11 -8 -25 0 -14 -4 -25 -10
-25 -5 0 -10 -13 -10 -29 0 -17 -4 -33 -10 -36 -5 -3 -10 -17 -10 -31 0 -13
-4 -24 -10 -24 -5 0 -10 -9 -10 -19 0 -11 -5 -23 -10 -26 -6 -3 -10 -21 -10
-40 0 -19 -4 -37 -10 -40 -5 -3 -10 -17 -10 -30 0 -13 -5 -27 -10 -30 -6 -3
-10 -17 -10 -30 0 -13 -4 -27 -10 -30 -5 -3 -10 -24 -10 -45 0 -21 -4 -42 -10
-45 -5 -3 -10 -19 -10 -35 0 -16 -5 -32 -10 -35 -6 -3 -10 -19 -10 -35 0 -16
-5 -32 -10 -35 -6 -3 -10 -30 -10 -60 0 -30 -4 -57 -10 -60 -5 -3 -10 -24 -10
-45 0 -21 -4 -41 -9 -44 -9 -6 -16 -54 -31 -211 -5 -49 -14 -124 -20 -165 -40
-293 -40 -713 1 -1000 6 -41 13 -118 15 -170 3 -52 10 -99 15 -104 5 -6 9 -29
9 -52 0 -24 5 -46 10 -49 6 -3 10 -24 10 -45 0 -21 5 -42 10 -45 6 -3 10 -30
10 -60 0 -30 4 -57 10 -60 5 -3 10 -19 10 -35 0 -16 5 -32 10 -35 6 -3 10 -19
10 -35 0 -16 5 -32 10 -35 6 -3 10 -24 10 -45 0 -21 5 -42 10 -45 6 -3 10 -19
10 -36 0 -16 5 -29 10 -29 6 0 10 -11 10 -24 0 -14 5 -28 10 -31 6 -3 10 -21
10 -40 0 -19 5 -37 10 -40 6 -3 10 -15 10 -26 0 -10 5 -19 10 -19 6 0 10 -11
10 -24 0 -14 4 -28 10 -31 5 -3 10 -19 10 -36 0 -16 5 -29 10 -29 6 0 10 -11
10 -25 0 -14 4 -25 8 -25 4 0 13 -20 21 -44 7 -24 23 -65 37 -91 13 -27 24
-57 24 -67 0 -10 5 -18 10 -18 6 0 10 -9 10 -20 0 -11 4 -20 9 -20 5 0 14 -15
21 -32 20 -53 33 -81 52 -110 10 -14 18 -36 18 -47 0 -12 5 -21 10 -21 6 0 10
-7 10 -15 0 -9 9 -25 20 -37 11 -12 20 -32 20 -45 0 -13 5 -23 10 -23 6 0 10
-7 10 -15 0 -8 5 -15 10 -15 6 0 10 -7 10 -15 0 -8 5 -15 10 -15 6 0 10 -6 10
-13 0 -18 24 -67 33 -67 4 0 7 -7 7 -15 0 -8 5 -15 10 -15 6 0 10 -9 10 -19 0
-11 8 -26 17 -33 10 -7 27 -29 37 -48 11 -19 24 -44 30 -54 6 -11 19 -29 28
-40 10 -11 18 -23 18 -28 0 -4 14 -22 30 -40 17 -17 30 -36 30 -42 0 -6 9 -18
20 -26 11 -8 20 -19 20 -25 0 -5 14 -26 30 -45 16 -19 30 -40 30 -45 0 -6 18
-29 40 -53 22 -23 40 -47 40 -52 0 -6 25 -36 55 -68 107 -112 115 -122 115
-134 0 -7 10 -18 23 -23 12 -6 26 -20 32 -32 5 -13 13 -23 16 -23 4 0 73 -65
153 -145 81 -80 149 -145 152 -145 5 0 31 -24 119 -108 24 -23 49 -42 54 -42
5 0 32 -23 61 -50 29 -28 56 -50 61 -50 8 0 36 -20 64 -47 8 -7 17 -13 22 -13
4 0 24 -14 43 -30 19 -16 40 -30 47 -30 6 0 13 -4 15 -8 4 -12 95 -72 107 -72
6 0 11 -4 11 -8 0 -5 18 -17 39 -27 22 -9 41 -26 44 -36 3 -13 14 -19 31 -19
14 0 26 -4 26 -10 0 -5 7 -10 15 -10 8 0 15 -4 15 -10 0 -5 9 -10 20 -10 11 0
20 -4 20 -10 0 -5 9 -10 20 -10 11 0 20 -4 20 -10 0 -5 7 -10 15 -10 8 0 15
-4 15 -10 0 -5 7 -10 15 -10 8 0 15 -4 15 -10 0 -5 10 -10 23 -10 13 0 33 -9
45 -20 12 -11 28 -20 37 -20 8 0 15 -4 15 -10 0 -5 6 -10 13 -10 18 0 67 -24
67 -32 0 -5 7 -8 15 -8 8 0 15 -4 15 -10 0 -5 10 -10 23 -10 26 0 77 -21 77
-32 0 -5 9 -8 20 -8 11 0 20 -4 20 -10 0 -5 14 -10 30 -10 17 0 30 -4 30 -10
0 -5 9 -10 20 -10 11 0 20 -4 20 -9 0 -5 27 -17 60 -27 33 -11 60 -22 60 -26
0 -5 9 -8 20 -8 11 0 20 -4 20 -10 0 -5 11 -10 24 -10 14 0 28 -5 31 -10 3 -6
22 -10 41 -10 19 0 34 -4 34 -10 0 -5 9 -10 20 -10 11 0 20 -4 20 -10 0 -5 18
-10 39 -10 22 0 43 -5 46 -10 3 -6 17 -10 30 -10 13 0 27 -5 30 -10 3 -6 17
-10 30 -10 13 0 27 -5 30 -10 3 -6 24 -10 45 -10 21 0 42 -5 45 -10 3 -6 19
-10 35 -10 16 0 32 -4 35 -10 3 -5 19 -10 36 -10 16 0 29 -4 29 -10 0 -6 26
-10 59 -10 33 0 63 -5 66 -10 3 -6 24 -10 45 -10 21 0 42 -5 45 -10 3 -5 24
-10 45 -10 21 0 42 -4 45 -10 3 -5 48 -10 99 -10 50 0 96 -4 101 -9 10 -9 76
-16 245 -27 47 -2 94 -9 105 -15 35 -17 627 1 670 21 21 10 92 17 255 26 52 3
99 10 105 15 5 5 26 9 46 9 21 0 41 5 44 10 3 6 24 10 45 10 21 0 42 5 45 10
3 6 31 10 61 10 30 0 54 5 54 10 0 6 13 10 29 10 17 0 33 4 36 10 3 5 19 10
35 10 16 0 32 5 35 10 3 6 26 10 51 10 24 0 44 5 44 10 0 6 14 10 30 10 17 0
30 5 30 10 0 6 13 10 29 10 17 0 33 5 36 10 3 6 22 10 41 10 19 0 34 5 34 10
0 6 9 10 19 10 11 0 23 5 26 10 3 6 19 10 35 10 16 0 32 5 35 10 3 6 19 10 36
10 16 0 29 3 29 8 0 8 46 30 75 35 11 2 48 18 82 35 34 18 74 32 88 32 14 0
25 4 25 8 0 11 77 52 98 52 10 0 28 9 42 20 14 11 31 20 38 20 6 0 12 5 12 10
0 6 7 10 15 10 14 0 53 18 65 30 12 12 51 30 65 30 8 0 15 5 15 10 0 6 6 10
13 10 6 0 23 9 37 20 14 11 33 20 44 20 10 0 26 8 35 18 19 20 56 42 71 42 6
0 25 13 41 28 17 15 47 37 67 47 20 11 43 26 50 32 7 7 17 13 22 13 5 0 15 6
22 13 7 7 29 24 48 37 19 13 44 32 54 42 11 10 25 18 31 18 7 0 26 13 43 30
18 16 37 30 43 30 6 0 24 14 39 30 15 17 33 30 39 30 6 0 31 19 56 42 63 61
155 142 166 146 5 2 35 30 67 63 32 32 62 59 66 59 11 0 132 124 139 143 3 9
13 17 22 17 8 0 15 7 15 15 0 8 5 15 10 15 6 0 10 7 10 15 0 8 4 15 8 15 14 0
52 36 52 49 0 6 18 30 40 54 125 132 150 160 150 169 0 5 14 23 30 38 17 15
30 33 30 39 0 10 18 36 48 66 6 8 12 18 12 24 0 6 14 25 30 43 16 17 30 36 30
42 0 6 9 18 20 26 11 8 20 22 20 32 0 10 5 18 10 18 6 0 10 6 10 13 0 6 11 25
25 41 13 16 27 37 30 47 4 11 10 19 15 19 4 0 25 34 45 75 21 41 41 75 46 75
5 0 9 9 9 20 0 11 5 20 10 20 6 0 10 8 10 18 0 10 9 24 20 32 12 8 20 26 20
42 0 15 5 28 10 28 6 0 10 8 10 18 0 10 9 24 20 32 11 8 20 23 20 33 0 10 14
38 30 62 17 24 30 52 30 62 0 10 13 45 29 78 49 100 101 223 101 240 0 8 5 15
10 15 6 0 10 9 10 19 0 11 5 23 10 26 6 3 10 19 10 35 0 16 5 32 10 35 6 3 10
19 10 36 0 16 5 29 10 29 6 0 10 9 10 20 0 11 5 20 10 20 6 0 10 18 10 39 0
22 5 43 10 46 5 3 10 22 10 41 0 19 5 34 10 34 6 0 10 11 10 24 0 14 5 28 10
31 6 3 10 26 10 50 0 24 5 47 10 50 6 3 10 22 10 41 0 19 5 34 10 34 6 0 10
14 10 30 0 17 5 30 10 30 6 0 10 30 10 70 0 40 4 70 10 70 6 0 10 20 10 44 0
25 5 48 10 51 6 3 10 24 10 45 0 21 5 42 10 45 6 4 10 58 10 129 0 67 4 126 9
132 30 30 30 858 0 889 -5 5 -9 64 -9 131 0 68 -4 125 -9 128 -9 6 -16 44 -27
139 -3 26 -10 47 -14 47 -5 0 -11 28 -13 63 -8 87 -18 137 -28 137 -5 0 -9 15
-9 34 0 19 -4 38 -10 41 -5 3 -10 26 -10 50 0 24 -4 47 -10 50 -5 3 -10 17
-10 31 0 13 -4 24 -10 24 -5 0 -10 13 -10 29 0 17 -4 33 -10 36 -5 3 -10 26
-10 51 0 24 -4 44 -10 44 -5 0 -10 9 -10 20 0 11 -4 20 -10 20 -5 0 -10 13
-10 29 0 17 -4 33 -10 36 -5 3 -10 17 -10 30 0 14 -9 40 -20 60 -11 20 -20 41
-20 48 0 7 -16 44 -35 82 -19 39 -35 75 -35 81 0 7 -14 38 -30 69 -16 31 -30
66 -30 77 0 11 -13 39 -30 63 -16 24 -30 52 -30 62 0 10 -9 25 -20 33 -11 8
-20 22 -20 32 0 10 -4 18 -10 18 -5 0 -10 13 -10 28 0 16 -8 34 -20 42 -11 8
-20 22 -20 32 0 10 -4 18 -10 18 -5 0 -10 9 -10 20 0 11 -4 20 -10 20 -5 0
-10 6 -10 14 0 8 -4 16 -8 18 -4 2 -20 29 -36 61 -15 31 -31 57 -36 57 -5 0
-11 8 -15 19 -3 10 -17 31 -30 47 -14 16 -25 35 -25 42 0 6 -4 12 -10 12 -5 0
-10 8 -10 18 0 10 -9 24 -20 32 -11 8 -20 20 -20 26 0 6 -13 25 -30 42 -16 18
-30 36 -30 42 0 9 -19 35 -47 65 -7 8 -13 18 -13 23 0 5 -13 23 -30 40 -16 18
-30 39 -30 47 0 8 -9 15 -20 15 -11 0 -20 7 -20 15 0 9 -19 35 -42 60 -64 66
-108 118 -108 128 0 11 -39 47 -52 47 -4 0 -8 6 -8 13 0 6 -14 23 -30 36 -17
13 -30 29 -30 35 0 6 -13 20 -30 29 -16 10 -30 24 -30 30 0 7 -13 21 -30 30
-16 10 -30 25 -30 33 0 8 -6 14 -14 14 -8 0 -26 14 -39 30 -14 17 -29 30 -34
30 -4 0 -17 14 -28 30 -11 16 -25 30 -30 30 -9 0 -78 60 -172 150 -24 22 -48
40 -54 40 -6 0 -24 14 -39 30 -15 17 -33 30 -39 30 -10 0 -36 18 -66 48 -8 6
-17 12 -22 12 -4 0 -24 14 -43 30 -19 16 -39 30 -43 30 -4 0 -19 11 -33 25
-14 14 -29 25 -34 25 -5 0 -15 6 -22 13 -7 6 -30 21 -50 32 -20 10 -50 32 -67
47 -16 15 -35 28 -41 28 -15 0 -52 22 -71 43 -9 9 -25 17 -35 17 -11 0 -30 9
-44 20 -14 11 -31 20 -37 20 -7 0 -13 5 -13 10 0 6 -7 10 -15 10 -14 0 -53 18
-65 30 -12 12 -51 30 -65 30 -8 0 -15 5 -15 10 0 6 -8 10 -17 10 -10 0 -29 9
-43 20 -14 11 -35 20 -47 20 -13 0 -23 5 -23 10 0 6 -9 10 -20 10 -11 0 -20 3
-20 8 0 8 -48 32 -65 32 -6 0 -36 13 -66 29 -30 16 -71 33 -91 36 -21 4 -38
11 -38 16 0 5 -9 9 -19 9 -11 0 -23 5 -26 10 -3 6 -17 10 -31 10 -13 0 -24 5
-24 10 0 6 -16 10 -35 10 -19 0 -35 5 -35 10 0 6 -9 10 -20 10 -11 0 -20 5
-20 10 0 6 -15 10 -34 10 -19 0 -38 5 -41 10 -3 6 -19 10 -36 10 -16 0 -29 5
-29 10 0 6 -13 10 -30 10 -16 0 -30 5 -30 10 0 6 -20 10 -44 10 -25 0 -48 5
-51 10 -3 6 -19 10 -35 10 -16 0 -32 5 -35 10 -3 6 -19 10 -36 10 -16 0 -29 5
-29 10 0 6 -24 10 -54 10 -30 0 -58 5 -61 10 -3 6 -26 10 -51 10 -24 0 -44 5
-44 10 0 6 -22 10 -50 10 -27 0 -50 4 -50 9 0 5 -44 12 -97 15 -151 8 -226 16
-248 26 -42 20 -652 39 -670 21z m-585 -3096 c0 -585 3 -895 10 -895 5 0 15 9
22 20 7 11 19 20 26 20 16 0 36 19 45 43 3 9 14 17 24 17 10 0 23 8 29 18 7 9
29 26 50 37 22 11 41 23 44 26 11 15 82 49 100 49 11 0 20 3 20 8 0 4 15 13
33 20 17 7 40 18 49 23 10 5 36 9 57 9 22 0 43 5 46 10 3 6 19 10 36 10 16 0
29 5 29 10 0 6 24 10 54 10 30 0 58 5 61 10 4 6 87 10 215 10 128 0 211 -4
215 -10 3 -5 28 -10 56 -10 27 0 49 -4 49 -9 0 -9 31 -14 145 -27 28 -3 54
-10 59 -15 6 -5 19 -9 31 -9 25 0 75 -22 75 -32 0 -5 15 -8 34 -8 19 0 38 -4
41 -10 3 -5 15 -10 26 -10 10 0 19 -3 19 -8 0 -4 15 -13 33 -20 17 -8 42 -18
55 -23 12 -5 25 -16 28 -24 4 -8 15 -15 25 -15 10 0 19 -4 19 -10 0 -5 9 -10
20 -10 12 0 30 -9 42 -20 12 -11 28 -20 35 -20 7 0 13 -4 13 -10 0 -5 7 -10
16 -10 9 0 29 -13 44 -30 15 -16 35 -30 44 -30 9 0 16 -6 16 -14 0 -8 8 -17
19 -21 19 -6 198 -180 261 -255 19 -23 43 -49 53 -58 9 -9 17 -22 17 -29 0 -7
5 -13 10 -13 6 0 10 -5 10 -11 0 -6 6 -16 13 -24 30 -32 47 -56 47 -68 0 -7 9
-23 20 -35 11 -12 20 -28 20 -37 0 -8 5 -15 10 -15 6 0 10 -9 10 -20 0 -11 5
-20 10 -20 6 0 10 -9 10 -20 0 -11 3 -20 8 -20 4 0 13 -15 21 -32 7 -18 23
-55 35 -83 26 -59 56 -141 63 -172 3 -13 9 -23 14 -23 5 0 9 -19 9 -42 0 -24
8 -63 17 -88 9 -25 21 -72 26 -105 14 -80 13 -654 -1 -725 -6 -30 -14 -70 -18
-88 -3 -18 -10 -35 -15 -38 -5 -3 -9 -22 -9 -42 0 -20 -12 -69 -26 -107 -15
-39 -29 -81 -32 -94 -2 -13 -21 -53 -40 -90 -19 -36 -40 -76 -46 -88 -6 -13
-14 -23 -18 -23 -5 0 -8 -7 -8 -15 0 -18 -18 -51 -42 -79 -10 -11 -18 -26 -18
-33 0 -7 -4 -13 -10 -13 -5 0 -10 -7 -10 -15 0 -17 -65 -106 -86 -118 -8 -4
-14 -12 -14 -18 0 -15 -192 -199 -208 -199 -9 0 -42 -37 -42 -48 -1 -7 -37
-33 -110 -79 -25 -15 -54 -35 -64 -45 -11 -10 -28 -18 -37 -18 -10 0 -19 -3
-21 -7 -4 -10 -86 -53 -99 -53 -6 0 -19 -9 -31 -20 -12 -11 -30 -20 -39 -20
-10 0 -21 -4 -24 -10 -3 -5 -19 -10 -36 -10 -16 0 -29 -4 -29 -10 0 -5 -9 -10
-20 -10 -11 0 -20 -4 -20 -10 0 -5 -13 -10 -30 -10 -16 0 -30 -4 -30 -10 0 -5
-18 -10 -39 -10 -22 0 -43 -4 -46 -10 -3 -5 -17 -10 -30 -10 -13 0 -27 -4 -30
-10 -3 -5 -24 -10 -46 -10 -21 0 -39 -4 -39 -9 0 -5 -37 -13 -82 -19 -46 -6
-110 -17 -143 -23 -78 -15 -503 -23 -530 -10 -11 6 -40 12 -65 15 -141 16
-220 29 -220 37 0 5 -18 9 -40 9 -22 0 -40 5 -40 10 0 6 -11 10 -25 10 -14 0
-25 5 -25 10 0 6 -20 10 -45 10 -25 0 -45 5 -45 10 0 6 -11 10 -25 10 -14 0
-25 5 -25 10 0 6 -9 10 -20 10 -11 0 -20 5 -20 10 0 6 -13 10 -30 10 -16 0
-30 5 -30 10 0 6 -6 10 -13 10 -18 0 -67 24 -67 33 0 4 -9 7 -20 7 -22 0 -54
16 -84 43 -11 9 -27 17 -35 17 -9 0 -32 14 -51 30 -19 16 -40 30 -46 30 -7 0
-22 13 -35 30 -13 16 -32 30 -41 30 -10 0 -18 3 -18 8 0 11 -46 62 -56 62 -21
1 -194 163 -194 183 0 4 -13 21 -30 39 -16 17 -30 36 -30 42 0 6 -9 17 -20 24
-11 7 -20 19 -20 27 0 8 -4 15 -10 15 -5 0 -10 8 -10 18 0 10 -9 24 -20 32
-11 8 -20 22 -20 32 0 10 -4 18 -10 18 -5 0 -10 9 -10 20 0 11 -4 20 -8 20
-13 0 -102 185 -115 240 -6 27 -15 50 -19 50 -5 0 -8 9 -8 20 0 11 -4 20 -10
20 -5 0 -10 20 -10 44 0 25 -4 48 -10 51 -5 3 -10 21 -10 40 0 19 -4 37 -10
40 -5 3 -10 24 -10 45 0 21 -4 42 -10 45 -6 4 -10 65 -10 150 0 85 -4 146 -10
150 -7 4 -10 588 -10 1721 l0 1714 585 0 585 0 0 -895z"/>
<path d="M4960 5230 c-8 -5 -41 -10 -73 -10 -31 0 -65 -4 -75 -9 -77 -39 -106
-51 -123 -51 -10 0 -19 -4 -19 -10 0 -5 -7 -10 -15 -10 -8 0 -15 -3 -15 -7 0
-8 -48 -33 -63 -33 -12 0 -32 -21 -40 -42 -3 -10 -13 -18 -20 -18 -15 0 -77
-72 -77 -89 0 -6 -4 -11 -10 -11 -5 0 -10 -9 -10 -20 0 -11 -3 -20 -8 -20 -7
0 -19 -25 -42 -90 -6 -19 -15 -44 -20 -55 -23 -61 -30 -98 -30 -156 0 -36 -5
-70 -11 -76 -16 -16 5 -363 25 -418 12 -32 28 -69 37 -87 5 -10 9 -26 9 -36 0
-10 9 -28 20 -40 11 -12 20 -28 20 -37 0 -8 5 -15 10 -15 6 0 10 -6 10 -13 0
-12 21 -38 101 -124 17 -18 37 -33 45 -33 8 0 14 -4 14 -10 0 -5 9 -10 20 -10
11 0 20 -4 20 -10 0 -5 7 -10 15 -10 8 0 15 -3 15 -7 0 -13 51 -33 81 -33 15
0 31 -4 34 -10 3 -5 15 -10 26 -10 10 0 19 -4 19 -9 0 -14 107 -23 270 -23
163 0 270 9 270 23 0 5 11 9 24 9 14 0 28 5 31 10 3 6 19 10 36 10 16 0 29 5
29 10 0 6 6 10 13 10 18 0 67 24 67 33 0 4 9 7 20 7 11 0 20 5 20 10 0 6 9 10
19 10 11 0 23 9 26 20 3 11 11 20 17 20 5 0 24 15 42 33 18 18 40 36 49 40 9
3 17 15 17 26 0 11 9 22 20 26 11 3 20 12 20 20 0 16 42 99 53 103 4 2 7 14 7
27 0 13 5 27 10 30 6 3 10 17 10 30 0 13 5 27 10 30 6 3 10 19 10 35 0 16 5
32 10 35 6 4 10 88 10 221 0 136 -4 214 -10 214 -5 0 -10 13 -10 29 0 17 -4
33 -10 36 -5 3 -10 17 -10 30 0 13 -4 27 -10 30 -5 3 -10 17 -10 31 0 13 -3
24 -7 24 -9 0 -33 49 -33 67 0 7 -4 13 -10 13 -5 0 -10 6 -10 13 0 7 -9 19
-20 27 -11 8 -20 21 -20 28 0 17 -88 102 -106 102 -7 0 -16 9 -19 20 -3 11
-13 20 -22 20 -15 0 -75 38 -81 52 -2 4 -14 8 -27 8 -13 0 -27 5 -30 10 -3 6
-15 10 -26 10 -10 0 -19 5 -19 10 0 6 -9 10 -20 10 -11 0 -20 5 -20 10 0 6
-33 10 -79 10 -44 0 -83 5 -86 10 -8 13 -265 13 -285 0z"/>
<path d="M10246 4693 c-3 -38 -10 -102 -16 -143 -6 -41 -15 -113 -20 -160 -5
-47 -14 -107 -20 -135 -6 -27 -13 -70 -16 -95 -3 -25 -9 -54 -14 -65 -5 -11
-11 -40 -14 -65 -3 -25 -12 -67 -20 -95 -39 -135 -46 -163 -46 -183 0 -12 -4
-22 -10 -22 -5 0 -10 -11 -10 -24 0 -14 -4 -28 -10 -31 -5 -3 -10 -19 -10 -35
0 -16 -4 -32 -10 -35 -5 -3 -10 -17 -10 -31 0 -13 -4 -33 -10 -44 -5 -11 -14
-29 -20 -40 -5 -11 -10 -31 -10 -45 0 -14 -4 -25 -10 -25 -5 0 -10 -13 -10
-30 0 -16 -4 -30 -10 -30 -5 0 -10 -9 -10 -20 0 -11 -4 -20 -10 -20 -5 0 -10
-15 -10 -34 0 -19 -4 -38 -10 -41 -5 -3 -10 -15 -10 -26 0 -10 -4 -19 -10 -19
-5 0 -10 -9 -10 -19 0 -11 -4 -23 -10 -26 -5 -3 -10 -14 -10 -23 0 -9 -13 -44
-29 -77 -16 -33 -39 -80 -50 -105 -12 -25 -25 -52 -30 -60 -5 -8 -19 -36 -32
-63 -12 -26 -28 -52 -36 -58 -7 -6 -13 -18 -13 -25 0 -14 -35 -82 -51 -98 -5
-6 -9 -18 -9 -28 0 -10 -4 -18 -10 -18 -5 0 -10 -6 -10 -13 0 -7 -9 -23 -20
-35 -11 -12 -20 -27 -20 -34 0 -7 -9 -24 -20 -38 -11 -14 -20 -31 -20 -37 0
-7 -4 -13 -10 -13 -5 0 -10 -6 -10 -13 0 -7 -9 -23 -20 -35 -11 -12 -20 -24
-20 -27 0 -3 -18 -33 -40 -65 -22 -32 -40 -62 -40 -65 0 -3 -9 -16 -20 -28
-34 -36 -90 -111 -90 -120 0 -4 -13 -22 -30 -40 -16 -18 -30 -36 -30 -40 0 -5
-13 -22 -30 -37 -16 -15 -30 -33 -30 -39 0 -7 -15 -26 -32 -45 -18 -18 -49
-52 -68 -76 -19 -24 -73 -83 -120 -132 -47 -49 -87 -94 -89 -100 -5 -15 -194
-198 -204 -198 -2 0 -35 -31 -75 -70 -39 -38 -76 -70 -80 -70 -5 0 -34 -25
-66 -55 -31 -30 -60 -55 -65 -55 -4 0 -22 -13 -39 -30 -18 -16 -35 -30 -39
-30 -5 0 -22 -14 -40 -30 -18 -17 -36 -30 -42 -30 -5 0 -11 -4 -13 -8 -1 -5
-28 -26 -58 -48 -30 -21 -64 -47 -74 -56 -11 -10 -24 -18 -28 -18 -5 0 -18 -9
-30 -20 -11 -10 -36 -26 -54 -35 -18 -8 -39 -21 -46 -28 -19 -17 -69 -47 -90
-54 -10 -3 -18 -8 -18 -12 0 -4 -16 -13 -35 -21 -19 -8 -35 -17 -35 -22 0 -4
-9 -8 -20 -8 -11 0 -20 -4 -20 -10 0 -5 -9 -10 -20 -10 -11 0 -20 -4 -20 -10
0 -5 -6 -10 -13 -10 -7 0 -23 -9 -35 -20 -12 -11 -28 -20 -36 -20 -8 0 -37
-16 -66 -35 -29 -19 -59 -35 -69 -35 -9 0 -27 -9 -41 -20 -14 -11 -31 -20 -37
-20 -7 0 -13 -4 -13 -10 0 -5 -13 -10 -30 -10 -16 0 -30 -4 -30 -10 0 -5 -9
-10 -20 -10 -11 0 -20 -4 -20 -10 0 -5 -9 -10 -20 -10 -11 0 -20 -4 -20 -10 0
-5 -13 -10 -29 -10 -16 0 -31 -3 -33 -7 -7 -17 -92 -53 -124 -53 -19 0 -34 -4
-34 -10 0 -5 -7 -10 -15 -10 -8 0 -15 -4 -15 -10 0 -5 -13 -10 -30 -10 -16 0
-30 -4 -30 -10 0 -5 -18 -10 -40 -10 -22 0 -40 -4 -40 -10 0 -5 -9 -10 -20
-10 -11 0 -20 -4 -20 -10 0 -5 -11 -10 -24 -10 -14 0 -28 -5 -31 -10 -3 -6
-24 -10 -46 -10 -21 0 -39 -4 -39 -10 0 -5 -10 -10 -23 -10 -12 0 -40 -9 -61
-20 -21 -10 -59 -22 -85 -26 -25 -4 -50 -10 -56 -14 -5 -4 -23 -10 -40 -13
-16 -3 -52 -11 -80 -17 -27 -7 -72 -14 -100 -16 -27 -3 -59 -9 -70 -14 -11 -5
-38 -11 -60 -15 -22 -3 -67 -10 -100 -15 -33 -5 -99 -12 -147 -16 -49 -4 -88
-10 -88 -15 0 -4 -37 -10 -82 -12 -46 -1 982 -4 2285 -5 l2367 -2 0 2380 c0
1309 -2 2380 -4 2380 -2 0 -7 -30 -10 -67z"/>
<path d="M2 2373 l-2 -2373 2358 2 c1296 1 2320 4 2275 5 -46 2 -83 8 -83 13
0 5 -42 11 -92 14 -137 8 -212 17 -222 27 -6 5 -29 9 -53 9 -24 0 -43 5 -43
10 0 6 -16 10 -35 10 -32 0 -74 8 -170 32 -22 6 -49 14 -60 18 -11 4 -57 16
-102 26 -46 9 -83 21 -83 26 0 4 -13 8 -30 8 -16 0 -30 5 -30 10 0 6 -18 10
-40 10 -22 0 -40 5 -40 10 0 6 -11 10 -25 10 -14 0 -25 5 -25 10 0 6 -9 10
-19 10 -11 0 -23 4 -26 10 -3 5 -21 10 -40 10 -19 0 -37 5 -40 10 -3 6 -15 10
-26 10 -10 0 -19 5 -19 10 0 6 -11 10 -25 10 -14 0 -25 5 -25 10 0 6 -13 10
-29 10 -17 0 -33 5 -36 10 -3 6 -15 10 -26 10 -10 0 -19 5 -19 10 0 6 -9 10
-20 10 -11 0 -20 5 -20 10 0 6 -13 10 -30 10 -16 0 -30 5 -30 10 0 6 -9 10
-20 10 -11 0 -20 5 -20 10 0 6 -9 10 -20 10 -11 0 -20 5 -20 10 0 6 -13 10
-30 10 -16 0 -30 5 -30 10 0 6 -6 10 -12 10 -7 0 -24 9 -38 20 -14 11 -33 20
-44 20 -10 0 -41 16 -67 35 -27 19 -57 35 -67 35 -10 0 -24 9 -32 20 -8 11
-22 20 -32 20 -10 0 -18 5 -18 10 0 6 -8 10 -18 10 -10 0 -24 9 -32 20 -8 12
-26 20 -42 20 -15 0 -28 5 -28 10 0 6 -7 10 -15 10 -8 0 -15 3 -15 8 0 4 -18
15 -39 24 -22 10 -51 29 -65 43 -14 14 -32 25 -41 25 -8 0 -15 5 -15 10 0 6
-8 10 -18 10 -10 0 -24 9 -32 20 -8 11 -20 20 -26 20 -6 0 -25 14 -42 30 -18
17 -36 30 -40 30 -5 0 -21 11 -36 25 -15 14 -31 25 -37 25 -5 0 -9 5 -9 10 0
6 -5 10 -11 10 -7 0 -25 14 -41 30 -15 17 -33 30 -39 30 -6 0 -24 14 -39 30
-15 17 -33 30 -40 30 -7 0 -24 12 -38 28 -15 15 -39 35 -54 45 -16 10 -28 24
-28 32 0 8 -7 15 -15 15 -8 0 -53 37 -99 83 -46 45 -92 87 -102 93 -11 6 -23
20 -29 32 -5 12 -17 22 -27 22 -9 0 -22 13 -30 30 -7 16 -20 30 -28 30 -8 0
-21 13 -28 30 -7 16 -22 32 -33 35 -10 4 -19 10 -19 15 0 5 -29 38 -65 74 -36
35 -65 69 -65 75 0 5 -27 37 -60 70 -33 33 -60 65 -60 72 0 6 -14 24 -30 39
-17 15 -30 35 -30 43 0 9 -9 19 -20 22 -11 3 -20 13 -20 21 0 8 -4 14 -10 14
-5 0 -10 7 -10 15 0 8 -4 15 -10 15 -5 0 -10 5 -10 10 0 6 -11 23 -25 38 -14
15 -25 30 -25 35 0 4 -11 19 -25 33 -14 14 -25 29 -25 34 0 5 -11 20 -25 34
-14 14 -25 32 -25 41 0 8 -4 15 -10 15 -5 0 -10 7 -10 16 0 9 -8 24 -17 33
-20 18 -52 67 -60 94 -3 9 -8 17 -12 17 -4 0 -13 16 -21 35 -8 19 -17 35 -22
35 -4 0 -8 9 -8 20 0 11 -4 20 -10 20 -5 0 -10 9 -10 20 0 11 -4 20 -10 20 -5
0 -10 8 -10 18 0 10 -9 24 -20 32 -11 8 -20 22 -20 32 0 10 -16 40 -35 67 -19
26 -35 53 -35 59 0 12 -37 81 -51 96 -5 6 -9 23 -9 38 0 15 -4 28 -10 28 -5 0
-10 9 -10 20 0 11 -4 20 -10 20 -5 0 -10 9 -10 20 0 11 -4 20 -10 20 -5 0 -10
14 -10 30 0 17 -4 30 -10 30 -5 0 -10 9 -10 20 0 11 -4 20 -10 20 -5 0 -10 9
-10 19 0 11 -4 23 -10 26 -5 3 -10 19 -10 36 0 16 -4 29 -10 29 -5 0 -10 9
-10 20 0 11 -4 20 -10 20 -5 0 -10 11 -10 24 0 14 -4 28 -10 31 -5 3 -10 19
-10 35 0 16 -4 32 -10 35 -5 3 -10 17 -10 31 0 13 -4 24 -10 24 -5 0 -10 14
-10 30 0 17 -4 30 -10 30 -5 0 -10 18 -10 40 0 22 -4 40 -10 40 -5 0 -10 11
-10 25 0 14 -6 36 -14 48 -8 12 -19 49 -26 82 -6 33 -16 68 -21 77 -5 10 -9
29 -9 42 0 14 -4 27 -9 30 -9 6 -17 50 -27 154 -4 34 -10 62 -15 62 -5 0 -9
15 -9 33 0 18 -4 37 -9 43 -10 10 -19 85 -27 222 -3 50 -9 92 -14 92 -5 0 -11
44 -13 98 -1 53 -4 -971 -5 -2275z"/>
</g>
</svg>
